<?xml version="1.0" encoding="utf-8"?>
<!-- Generator: Adobe Illustrator 19.2.1, SVG Export Plug-In . SVG Version: 6.00 Build 0)  -->
<svg version="1.1" id="Layer_2" xmlns="http://www.w3.org/2000/svg" xmlns:xlink="http://www.w3.org/1999/xlink" x="0px" y="0px"
	 viewBox="0 0 80.3 80.3" style="enable-background:new 0 0 80.3 80.3;" xml:space="preserve" <circle cx="50" cy="50" r="45" fill="rgb(240, 101, 197)" />
          <circle cx="50" cy="50" r="35" fill="rgb(127, 68, 255)" />>
<style type="text/css">
	.st0{fill:#EB6A5C;}
	.st1{fill:#552F2F;}
	.st2{fill:#55AB99;}
	.st3{fill:#2F4555;}
	.st4{fill:#FFFFFF;}
	.st5{fill:#ED6B5A;}
	.st6{fill:#0C2C48;}
	.st7{fill:#F1CC4B;}
	.st8{clip-path:url(#SVGID_2_);}
	.st9{clip-path:url(#SVGID_2_);fill:#F6A09C;}
	.st10{fill:#50646F;}
	.st11{fill:#FCA886;}
	.st12{fill:#EDAB7E;}
	.st13{fill:#332319;}
	.st14{fill:#E07E45;}
	.st15{fill:#FF8F8F;}
	.st16{fill:#A6D1D9;}
	.st17{fill:#628185;}
	.st18{fill:#BABABA;}
	.st19{fill:#698391;}
	.st20{opacity:0.41;fill:#FFFFFF;}
	.st21{fill:#F6A09C;}
	.st22{fill:#FFF3C9;}
	.st23{fill:#2384AB;}
	.st24{fill:#BABFC5;}
	.st25{clip-path:url(#SVGID_4_);}
	.st26{fill:#6EB9E0;}
	.st27{fill:#F8A06D;}
	.st28{fill:#A3B9C4;}
	.st29{fill:#3B4A52;}
	.st30{clip-path:url(#SVGID_6_);}
	.st31{clip-path:url(#SVGID_8_);fill:#F6A09C;}
	.st32{opacity:0.21;fill:#FFFFFF;}
	.st33{clip-path:url(#SVGID_10_);fill:#F6A09C;}
	.st34{clip-path:url(#SVGID_12_);}
	.st35{fill:#FFD3B5;}
	.st36{fill:#BFD9E6;}
	.st37{fill:#798287;}
	.st38{fill:#A4A8AD;}
	.st39{fill:#FFD6BA;}
	.st40{fill:none;stroke:#0C2C48;stroke-width:1.4;stroke-miterlimit:10;}
</style>
<g>
	<circle class="st5" cx="40.2" cy="40.2" r="40.2"/>
	<g>
		<defs>
			<circle id="SVGID_3_" cx="40.2" cy="40.2" r="35.8"/>
		</defs>
		<clipPath id="SVGID_2_">
			<use xlink:href="#SVGID_3_"  style="overflow:visible;"/>
		</clipPath>
		<g class="st8">
			<g>
				<path class="st6" d="M18.8,97.2c-0.7,0-1.3-0.6-1.3-1.3V14c0-0.7,0.6-1.2,1.3-1.2h43.1c0.7,0,1.2,0.6,1.2,1.2v81.9
					c0,0.7-0.6,1.3-1.2,1.3H18.8z"/>
				<rect x="20.1" y="20.3" class="st4" width="40.6" height="69.4"/>
				<rect x="36.2" y="16" class="st24" width="8.2" height="2"/>
			</g>
			<g>
				<g>
					<path class="st23" d="M33.1,31.6c0,0.5-0.4,1-1,1h-9.3c-0.5,0-1-0.4-1-1V23c0-0.5,0.4-1,1-1h9.3c0.5,0,1,0.4,1,1V31.6z"/>
					<path class="st26" d="M45.9,31.6c0,0.5-0.4,1-1,1h-9.3c-0.5,0-1-0.4-1-1V23c0-0.5,0.4-1,1-1H45c0.5,0,1,0.4,1,1V31.6z"/>
					<path class="st7" d="M58.8,31.6c0,0.5-0.4,1-1,1h-9.3c-0.5,0-1-0.4-1-1V23c0-0.5,0.4-1,1-1h9.3c0.5,0,1,0.4,1,1V31.6z"/>
				</g>
				<g>
					<path class="st27" d="M33.1,44.1c0,0.5-0.4,1-1,1h-9.3c-0.5,0-1-0.4-1-1v-8.6c0-0.5,0.4-1,1-1h9.3c0.5,0,1,0.4,1,1V44.1z"/>
					<path class="st5" d="M45.9,44.1c0,0.5-0.4,1-1,1h-9.3c-0.5,0-1-0.4-1-1v-8.6c0-0.5,0.4-1,1-1H45c0.5,0,1,0.4,1,1V44.1z"/>
					<path class="st2" d="M58.8,44.1c0,0.5-0.4,1-1,1h-9.3c-0.5,0-1-0.4-1-1v-8.6c0-0.5,0.4-1,1-1h9.3c0.5,0,1,0.4,1,1V44.1z"/>
				</g>
				<g>
					<path class="st10" d="M33.1,56.5c0,0.5-0.4,1-1,1h-9.3c-0.5,0-1-0.4-1-1v-8.6c0-0.5,0.4-1,1-1h9.3c0.5,0,1,0.4,1,1V56.5z"/>
					<path class="st24" d="M45.9,56.5c0,0.5-0.4,1-1,1h-9.3c-0.5,0-1-0.4-1-1v-8.6c0-0.5,0.4-1,1-1H45c0.5,0,1,0.4,1,1V56.5z"/>
					<path class="st27" d="M58.8,56.5c0,0.5-0.4,1-1,1h-9.3c-0.5,0-1-0.4-1-1v-8.6c0-0.5,0.4-1,1-1h9.3c0.5,0,1,0.4,1,1V56.5z"/>
				</g>
				<g>
					<path class="st7" d="M33.1,69c0,0.5-0.4,1-1,1h-9.3c-0.5,0-1-0.4-1-1v-8.6c0-0.5,0.4-1,1-1h9.3c0.5,0,1,0.4,1,1V69z"/>
					<path class="st23" d="M45.9,69c0,0.5-0.4,1-1,1h-9.3c-0.5,0-1-0.4-1-1v-8.6c0-0.5,0.4-1,1-1H45c0.5,0,1,0.4,1,1V69z"/>
					<path class="st26" d="M58.8,69c0,0.5-0.4,1-1,1h-9.3c-0.5,0-1-0.4-1-1v-8.6c0-0.5,0.4-1,1-1h9.3c0.5,0,1,0.4,1,1V69z"/>
				</g>
				<g>
					<path class="st27" d="M33.3,81.5c0,0.5-0.4,1-1,1h-9.3c-0.5,0-1-0.4-1-1v-8.6c0-0.5,0.4-1,1-1h9.3c0.5,0,1,0.4,1,1V81.5z"/>
					<path class="st23" d="M46.2,81.5c0,0.5-0.4,1-1,1H36c-0.5,0-1-0.4-1-1v-8.6c0-0.5,0.4-1,1-1h9.3c0.5,0,1,0.4,1,1V81.5z"/>
					<path class="st5" d="M59,81.5c0,0.5-0.4,1-1,1h-9.3c-0.5,0-1-0.4-1-1v-8.6c0-0.5,0.4-1,1-1h9.3c0.5,0,1,0.4,1,1V81.5z"/>
				</g>
			</g>
		</g>
	</g>
</g>
</svg>
